<?xml version="1.0" encoding="UTF-8" standalone="no"?>
<!-- Uploaded to: SVG Repo, www.svgrepo.com, Generator: SVG Repo Mixer Tools -->

<svg
   height="800px"
   width="800px"
   version="1.1"
   id="Layer_1"
   viewBox="0 0 511.999 511.999"
   xml:space="preserve"
   sodipodi:docname="snail-svgrepo-com-flip.svg"
   inkscape:version="1.1.2 (0a00cf5339, 2022-02-04)"
   xmlns:inkscape="http://www.inkscape.org/namespaces/inkscape"
   xmlns:sodipodi="http://sodipodi.sourceforge.net/DTD/sodipodi-0.dtd"
   xmlns="http://www.w3.org/2000/svg"
   xmlns:svg="http://www.w3.org/2000/svg"><defs
   id="defs89" /><sodipodi:namedview
   id="namedview87"
   pagecolor="#ffffff"
   bordercolor="#666666"
   borderopacity="1.0"
   inkscape:pageshadow="2"
   inkscape:pageopacity="0.0"
   inkscape:pagecheckerboard="0"
   showgrid="false"
   inkscape:zoom="1.00875"
   inkscape:cx="399.50434"
   inkscape:cy="400"
   inkscape:window-width="1858"
   inkscape:window-height="1016"
   inkscape:window-x="62"
   inkscape:window-y="27"
   inkscape:window-maximized="1"
   inkscape:current-layer="Layer_1" />
<path
   style="fill:#f0df9e"
   d="m 455.52243,259.167 c 24.876,0 45.04,-20.175 45.04,-45.051 0,-12.444 -5.044,-23.698 -13.187,-31.853 -8.155,-8.143 -19.42,-13.187 -31.853,-13.187 h -9.47 -16.092 c -10.579,0 -20.553,3.717 -28.444,10.179 -4.964,4.049 -9.115,9.184 -12.055,15.154 -12.455,25.242 -8.429,63.728 -60.171,88.616 -1.636,0.926 -3.351,1.75 -5.158,2.459 l -3.351,1.315 -0.183,0.069 -58.524,22.852 c -2.333,33.763 -26.043,63.683 -60.652,72.318 -38.132,9.527 -76.618,-4.14 -100.568,-32.07 -70.555999,41.471 -89.415999,81.399 -89.415999,81.399 H 378.57243 l -22.875,-46.309 c 0,0 76.241,-28.181 93.785,-125.89 l 6.04,-0.001 z"
   id="path66" />
<path
   style="fill:#a3875e"
   d="m 329.28943,283.026 c 18.757,-10.614 25.997,-34.918 14.651,-54.041 -34.426,-58.078 -104.033,-89.302 -172.897,-72.112 -67.228,16.79 -108.104999,84.899 -91.314999,152.115 3.912,15.646 11.289,29.508 21.124999,40.98 23.95,27.93 62.436,41.597 100.568,32.07 34.609,-8.635 58.319,-38.555 60.652,-72.318 l 58.524,-22.852 0.183,-0.069 c 2.996,-1.223 5.833,-2.47 8.509,-3.773 z"
   id="path68" />
<path
   d="m 262.07443,321.161 c 1.384,0 2.79,-0.253 4.157,-0.787 l 58.524,-22.85 c 5.884,-2.298 8.792,-8.93 6.494,-14.814 -2.297,-5.886 -8.929,-8.788 -14.814,-6.495 l -58.524,22.852 c -5.884,2.298 -8.792,8.93 -6.494,14.814 1.765,4.517 6.085,7.28 10.657,7.28 z"
   id="path70" />
<path
   d="m 320.78243,298.241 c 1.39,0 2.802,-0.255 4.175,-0.793 l 3.351,-1.314 c 2.269,-0.891 4.496,-1.952 6.621,-3.157 11.835,-6.697 20.642,-18.11 24.155,-31.308 3.504,-13.164 1.621,-26.844 -5.307,-38.52 -18.079,-30.5 -46.096,-54.995 -78.887,-68.968 -33.901,-14.446 -70.768,-17.355 -106.616,-8.405 -19.303,4.821 -36.907,13.521 -52.322,25.858 -4.933,3.947 -5.731,11.144 -1.784,16.076 3.946,4.933 11.144,5.731 16.076,1.784 12.828,-10.267 27.487,-17.509 43.571,-21.525 61.89,-15.452 127.801,12.039 160.287,66.846 3.766,6.349 4.788,13.793 2.878,20.968 -1.942,7.295 -6.798,13.595 -13.322,17.287 -1.194,0.677 -2.438,1.27 -3.705,1.767 l -3.35,1.313 c -5.88,2.308 -8.777,8.944 -6.47,14.825 1.768,4.51 6.083,7.264 10.649,7.266 z"
   id="path72" />
<path
   d="m 103.01443,212.219 c 3.381,0 6.729,-1.491 8.985,-4.352 0.28,-0.356 0.562,-0.707 0.845,-1.058 3.976,-4.909 3.217,-12.111 -1.692,-16.085 -4.908,-3.974 -12.108999,-3.218 -16.084999,1.692 -0.344,0.424 -0.686,0.852 -1.025,1.281 -3.914,4.959 -3.066,12.151 1.892,16.064 2.102,1.655 4.599999,2.458 7.079999,2.458 z"
   id="path74" />
<path
   d="m 176.79743,396.522 c 9.091,0 18.278,-1.111 27.396,-3.388 38.695,-9.654 66.541,-42.86 69.289,-82.626 0.668,-9.581 -0.184,-19.203 -2.533,-28.59 -4.892,-19.607 -17.131,-36.138 -34.462,-46.542 -17.327,-10.403 -37.67,-13.433 -57.282,-8.532 -16.28,4.063 -30.004,14.225 -38.643,28.611 -8.639,14.386 -11.157,31.275 -7.091,47.554 3.401,13.618 11.902,25.098 23.939,32.325 12.037,7.225 26.166,9.334 39.783,5.933 23.7,-5.926 38.173,-30.033 32.264,-53.742 -1.527,-6.129 -7.738,-9.857 -13.863,-8.332 -6.129,1.527 -9.86,7.734 -8.332,13.863 2.86,11.48 -4.144,23.151 -15.613,26.02 -7.685,1.917 -15.666,0.731 -22.465,-3.352 -6.798,-4.081 -11.601,-10.565 -13.52,-18.255 -2.585,-10.351 -0.984,-21.088 4.509,-30.237 5.493,-9.149 14.221,-15.61 24.575,-18.194 13.682,-3.417 27.876,-1.306 39.965,5.952 12.09,7.259 20.629,18.791 24.043,32.476 1.766,7.058 2.406,14.275 1.905,21.461 -2.063,29.85 -22.964,54.77 -52.011,62.017 -32.895,8.215 -67.038,-2.673 -89.118,-28.419 -9.023,-10.525 -15.318999,-22.741 -18.709999,-36.309 -6.505,-26.047 -3.597,-53.651 8.194,-77.724 2.778999,-5.673 0.432,-12.524 -5.241,-15.302 -5.675,-2.782 -12.523,-0.431 -15.302,5.241 -14.16,28.91 -17.656,62.056 -9.843,93.333 4.263,17.046 12.181,32.405 23.538,45.652 21.634999,25.225 52.492999,39.104 84.628999,39.106 z"
   id="path76" />
<path
   d="M 11.436431,442.804 H 378.57243 c 3.954,0 7.628,-2.043 9.715,-5.401 2.087,-3.359 2.291,-7.557 0.54,-11.102 l -17.73,-35.896 c 8.258,-4.436 20.108,-11.862 32.595,-23.179 19.483,-17.655 44.275,-48.465 55.163,-96.72 29.595,-1.731 53.144,-26.361 53.144,-56.39 0,-15.077 -5.871,-29.259 -16.533,-39.934 -10.686,-10.671 -24.868,-16.543 -39.945,-16.543 h -25.562 c -12.962,0 -25.637,4.535 -35.691,12.769 -6.359,5.187 -11.436,11.568 -15.07,18.952 -3.605,7.307 -5.84,15.035 -8.206,23.219 -6.225,21.527 -12.662,43.788 -46.661,60.141 -2.352,1.145 -4.868,2.262 -7.738,3.437 l -0.041,0.016 c -5.908,2.233 -8.888,8.834 -6.654,14.743 2.234,5.908 8.832,8.89 14.743,6.653 l 0.183,-0.07 c 0.094,-0.034 0.186,-0.072 0.278,-0.109 3.395,-1.386 6.403,-2.721 9.196,-4.081 43.165,-20.761 51.762,-50.49 58.669,-74.375 2.076,-7.18 4.037,-13.963 6.75,-19.462 2.179,-4.425 5.214,-8.242 9.027,-11.353 5.995,-4.909 13.523,-7.605 21.215,-7.605 h 25.563 c 8.973,0 17.414,3.496 23.77,9.843 6.337,6.345 9.833,14.787 9.833,23.76 0,18.534 -15.074,33.614 -33.603,33.614 h -6.039 c -5.537,0 -10.279,3.966 -11.258,9.415 -16.201,90.227 -85.792,116.924 -86.494,117.184 -3.04,1.123 -5.46,3.485 -6.66,6.497 -1.199,3.011 -1.065,6.39 0.372,9.296 l 14.723,29.808 H 33.085431 c 11.841,-14.53 34.299,-36.989 73.347999,-59.975 3.498,-1.957 5.864,-5.696 5.864,-9.987 0,-6.316 -5.116,-11.437 -11.432,-11.437 h -0.013 c -2.037999,0 -4.037999,0.544 -5.794999,1.577 -72.759,42.767 -93.1299998,84.613 -93.9619998,86.374 -1.67300002,3.544 -1.41700002,7.696 0.681,11.006 2.097,3.309 5.742,5.315 9.6599998,5.315 z"
   id="path78" />
<path
   d="m 401.51543,190.693 c 6.317,0 11.437,-5.122 11.437,-11.437 V 80.632 c 0,-6.316 -5.12,-11.437 -11.437,-11.437 -6.317,0 -11.437,5.122 -11.437,11.437 v 98.623 c 0,6.317 5.12,11.438 11.437,11.438 z"
   id="path80" />
<path
   d="m 446.05243,180.514 c 6.317,0 11.437,-5.122 11.437,-11.437 V 80.632 c 0,-6.316 -5.12,-11.437 -11.437,-11.437 -6.317,0 -11.437,5.122 -11.437,11.437 v 88.444 c 0,6.317 5.12,11.438 11.437,11.438 z"
   id="path82" />
<path
   d="m 430.28043,223.735 c 6.317,0 11.437,-5.122 11.437,-11.437 v -4.289 c 0,-6.316 -5.12,-11.437 -11.437,-11.437 -6.317,0 -11.437,5.122 -11.437,11.437 v 4.289 c 0,6.316 5.12,11.437 11.437,11.437 z"
   id="path84" />
</svg>
